<?xml version="1.0" standalone="no"?>
<!DOCTYPE svg PUBLIC "-//W3C//DTD SVG 1.1//EN" "http://www.w3.org/Graphics/SVG/1.1/DTD/svg11.dtd" >
<svg xmlns="http://www.w3.org/2000/svg" xmlns:xlink="http://www.w3.org/1999/xlink" version="1.1">
<metadata>
Created by FontForge 20170731 at Wed Jun  5 20:43:13 2002
 By Aleksey,,,
Copyright (c) 1990, 2002 Adobe Systems Incorporated.  All Rights Reserved. (c) 1981, 2002 Heidelberger Druckmaschinen AG. All rights reserved.
</metadata>
<defs>
<font id="HelveticaNeueLTStd-BlkEx" horiz-adv-x="870" >
  <font-face 
    font-family="HelveticaNeueLT Std Blk Ext"
    font-weight="900"
    font-stretch="expanded"
    units-per-em="1000"
    panose-1="2 11 10 7 4 5 2 3 2 4"
    ascent="800"
    descent="-200"
    x-height="547"
    cap-height="714"
    bbox="-238 -216 1412 1011"
    underline-thickness="50"
    underline-position="-200"
    unicode-range="U+0020-FB02"
  />
<missing-glyph horiz-adv-x="500" 
d="M0 0v700h500v-700h-500zM250 395l170 255h-340zM280 350l170 -255v510zM80 50h340l-170 255zM50 605v-510l170 255z" />
    <glyph glyph-name="fi" unicode="fi" horiz-adv-x="888" 
d="M578 0v547h250v-547h-250zM578 601v138h250v-138h-250zM125 0v391h-116v156h116v58q0 76 50 108t171 32q102 0 164 -6v-132h-75q-34 0 -47 -10.5t-13 -33.5v-16h135v-156h-135v-391h-250z" />
    <glyph glyph-name="fl" unicode="fl" horiz-adv-x="888" 
d="M125 0v391h-116v156h116v58q0 76 50 108t171 32q102 0 164 -6v-132h-75q-34 0 -47 -10.5t-13 -33.5v-16h135v-156h-135v-391h-250zM578 0v739h250v-739h-250z" />
    <glyph glyph-name=".notdef" horiz-adv-x="500" 
d="M0 0v700h500v-700h-500zM250 395l170 255h-340zM280 350l170 -255v510zM80 50h340l-170 255zM50 605v-510l170 255z" />
    <glyph glyph-name=".null" horiz-adv-x="0" 
 />
    <glyph glyph-name="nonmarkingreturn" horiz-adv-x="333" 
 />
    <glyph glyph-name="space" unicode=" " horiz-adv-x="408" 
 />
    <glyph glyph-name="exclam" unicode="!" horiz-adv-x="408" 
d="M97 275l-28 439h270l-30 -439h-212zM73 0v224h262v-224h-262z" />
    <glyph glyph-name="quotedbl" unicode="&#x22;" horiz-adv-x="722" 
d="M402 286v428h168v-428h-168zM152 286v428h168v-428h-168z" />
    <glyph glyph-name="numbersign" unicode="#" horiz-adv-x="600" 
d="M332 299l13 96h-77l-13 -96h77zM87 0l25 179h-77v120h94l13 96h-78v120h95l25 179h126l-25 -179h77l25 179h126l-25 -179h77v-120h-94l-13 -96h78v-120h-95l-25 -179h-126l25 179h-77l-25 -179h-126z" />
    <glyph glyph-name="dollar" unicode="$" horiz-adv-x="964" 
d="M496 258v-104q54 1 74.5 12.5t20.5 33.5q0 43 -51 51zM442 463v95q-48 0 -68.5 -10t-20.5 -33t17 -32.5t72 -19.5zM442 -110v90q-185 5 -277 57.5t-98 172.5h294q3 -28 23 -40.5t58 -15.5v112l-188 30q-90 14 -133.5 66t-43.5 125q0 121 92 173t273 54v90h54v-90
q76 -2 135.5 -13t113.5 -35t86.5 -68.5t38.5 -107.5h-294q-5 59 -80 68v-103l164 -25q129 -20 183 -69t54 -142q0 -60 -24 -104.5t-61 -69.5t-93 -40t-107 -20t-116 -5v-90h-54z" />
    <glyph glyph-name="percent" unicode="%" horiz-adv-x="1093" 
d="M762 173q0 -85 76 -85t76 85t-76 85t-76 -85zM248 -20l468 734h128l-468 -734h-128zM179 521q0 -85 76 -85t76 85t-76 85t-76 -85zM606 173q0 96 60.5 144.5t171.5 48.5q112 0 172 -48t60 -145t-60 -145t-172 -48q-111 0 -171.5 48.5t-60.5 144.5zM23 521
q0 96 60.5 144.5t171.5 48.5q112 0 172 -48t60 -145t-60 -145t-172 -48q-111 0 -171.5 48.5t-60.5 144.5z" />
    <glyph glyph-name="ampersand" unicode="&#x26;" horiz-adv-x="1038" 
d="M423 550q0 -25 56 -65q39 14 56.5 28.5t17.5 39.5q0 19 -19 31t-48 12q-30 0 -46.5 -12.5t-16.5 -33.5zM536 164l-176 158q-57 -26 -57 -84q0 -41 35.5 -71t84.5 -30q32 0 65.5 8.5t47.5 18.5zM711 0l-57 53q-45 -33 -128 -55.5t-171 -22.5q-142 0 -232 63.5t-90 175.5
q0 81 53.5 134t155.5 74q-69 53 -69 122q0 78 73.5 128t230.5 50q80 0 143 -16t106 -56t43 -99q0 -118 -166 -154l120 -111q70 54 144 136l120 -105q-62 -76 -142 -137l201 -180h-335z" />
    <glyph glyph-name="quotesingle" unicode="'" horiz-adv-x="408" 
d="M120 286v428h168v-428h-168z" />
    <glyph glyph-name="parenleft" unicode="(" horiz-adv-x="500" 
d="M260 714h175q-47 -90 -79.5 -211.5t-32.5 -240.5t32.5 -240.5t79.5 -211.5h-175q-83 76 -135 197t-52 255t52 255t135 197z" />
    <glyph glyph-name="parenright" unicode=")" horiz-adv-x="500" 
d="M240 -190h-175q47 90 79.5 211.5t32.5 240.5t-32.5 240.5t-79.5 211.5h175q83 -76 135 -197t52 -255t-52 -255t-135 -197z" />
    <glyph glyph-name="asterisk" unicode="*" horiz-adv-x="464" 
d="M-3 496l39 128l133 -55l-6 145h138l-6 -145l133 55l39 -128l-133 -40l89 -111l-111 -83l-80 118l-80 -118l-111 83l89 111z" />
    <glyph glyph-name="plus" unicode="+" horiz-adv-x="600" 
d="M228 325v181h144v-181h181v-144h-181v-181h-144v181h-181v144h181z" />
    <glyph glyph-name="comma" unicode="," horiz-adv-x="408" 
d="M73 0v224h262v-170q0 -57 -19 -103t-48 -73.5t-66 -46.5t-68.5 -26.5t-60.5 -8.5v90q112 13 118 114h-118z" />
    <glyph glyph-name="hyphen" unicode="-" horiz-adv-x="481" 
d="M59 207v174h363v-174h-363z" />
    <glyph glyph-name="period" unicode="." horiz-adv-x="408" 
d="M73 0v224h262v-224h-262z" />
    <glyph glyph-name="slash" unicode="/" horiz-adv-x="444" 
d="M-6 -25l279 764h177l-279 -764h-177z" />
    <glyph glyph-name="zero" unicode="0" horiz-adv-x="964" 
d="M38 345q2 177 116 272t330 95q218 0 331 -95t111 -272q0 -175 -114 -269t-331 -94q-216 0 -329.5 94.5t-113.5 268.5zM308 345q3 -75 47 -129t129 -54q87 0 131 54.5t41 128.5q0 78 -44 132.5t-131 54.5q-86 0 -129.5 -55t-43.5 -132z" />
    <glyph glyph-name="one" unicode="1" horiz-adv-x="666" 
d="M277 0v395h-212v174h42q96 2 146 28.5t75 96.5h211v-694h-262z" />
    <glyph glyph-name="two" unicode="2" horiz-adv-x="964" 
d="M370 384l205 44q54 11 54 54q0 56 -114 56q-34 0 -57 -3t-48 -11.5t-39 -29.5t-17 -53h-300q6 69 36.5 120t71.5 79t99 45t108.5 22t111.5 5q74 0 134 -5.5t119.5 -21t99.5 -41t64.5 -68t24.5 -98.5q0 -47 -22 -84.5t-59.5 -60.5t-75 -37t-79.5 -22l-251 -47
q-84 -15 -109 -53h581v-174h-878q1 77 21.5 138.5t52 101.5t77.5 70t90 46t99 28z" />
    <glyph glyph-name="three" unicode="3" horiz-adv-x="964" 
d="M339 280v162h194q76 0 76 47q0 26 -26 40.5t-100 14.5q-69 0 -90.5 -6.5t-35.5 -29.5h-294q6 75 60 121t142 64.5t220 18.5q226 0 323.5 -46.5t97.5 -151.5q0 -32 -8 -56.5t-36 -48.5t-77 -35v-2q67 -15 104 -56t37 -106q0 -228 -422 -228q-54 0 -93 1.5t-89.5 7
t-86.5 15.5t-74 28.5t-62 44.5t-41 65t-20 88h288q5 -39 38 -57q35 -19 121 -19q87 0 115.5 18.5t28.5 49.5q0 32 -26.5 44t-82.5 12h-181z" />
    <glyph glyph-name="four" unicode="4" horiz-adv-x="964" 
d="M551 274v252l-254 -252h254zM41 106v175l401 413h359v-420h129v-168h-129v-106h-250v106h-510z" />
    <glyph glyph-name="five" unicode="5" horiz-adv-x="964" 
d="M79 299l74 395h729v-168h-554l-14 -71q94 24 201 24q406 0 406 -246q0 -116 -106.5 -183.5t-329.5 -67.5q-230 0 -332 60.5t-110 187.5h293q10 -34 37 -50q33 -18 106 -18q160 0 160 75q0 86 -173 86q-80 0 -117 -24h-270z" />
    <glyph glyph-name="six" unicode="6" horiz-adv-x="964" 
d="M907 488h-282q-8 32 -48 45q-33 11 -90 11q-82 0 -123 -31t-45 -99q66 40 207 40q389 0 389 -225q0 -115 -98 -181t-299 -66q-81 0 -141 6t-125.5 28t-107 59.5t-68.5 104.5t-27 160q0 89 23.5 155.5t62.5 107t97 65.5t119 34.5t137 9.5q183 0 289.5 -49.5t129.5 -174.5z
M486 292q-80 0 -111 -17.5t-31 -53.5q0 -33 38 -52t104 -19q80 0 110.5 17.5t30.5 53.5q0 33 -38 52t-103 19z" />
    <glyph glyph-name="seven" unicode="7" horiz-adv-x="926" 
d="M29 514v180h868v-216q-197 -139 -290 -251t-114 -227h-362q8 66 29 117t73.5 111t138 126t225.5 158v2h-568z" />
    <glyph glyph-name="eight" unicode="8" horiz-adv-x="964" 
d="M481 430q75 0 104 12.5t29 45.5q0 32 -29 44t-104 12t-104 -12t-29 -44q0 -33 29 -45.5t104 -12.5zM482 286q-84 1 -117 -14t-33 -57q0 -65 150 -65t150 65q0 42 -33 57t-117 14zM482 712q100 0 172 -8.5t130.5 -29.5t88 -60t29.5 -97q0 -59 -33 -96t-91 -47v-2
q70 -9 109 -55t39 -103q0 -121 -107.5 -176.5t-337.5 -55.5q-229 0 -336 55.5t-107 176.5q0 56 39 102.5t107 55.5v2q-58 10 -91 47t-33 96q0 58 29.5 97t88 60t131 29.5t173.5 8.5z" />
    <glyph glyph-name="nine" unicode="9" horiz-adv-x="964" 
d="M57 206h282q8 -32 48 -45q33 -11 90 -11q82 0 123 31t45 99q-31 -19 -83 -30q-57 -10 -124 -10q-389 0 -389 225q0 115 98 181t299 66q81 0 141 -6t125.5 -28t107 -59.5t68.5 -104.5t27 -160q0 -89 -23.5 -155.5t-62.5 -107t-97 -65.5t-119 -34.5t-137 -9.5
q-183 0 -289.5 49.5t-129.5 174.5zM478 402q80 0 111 17.5t31 53.5q0 33 -38 52t-104 19q-80 0 -110.5 -17.5t-30.5 -53.5q0 -33 38 -52t103 -19z" />
    <glyph glyph-name="colon" unicode=":" horiz-adv-x="408" 
d="M73 323v224h262v-224h-262zM73 0v224h262v-224h-262z" />
    <glyph glyph-name="semicolon" unicode=";" horiz-adv-x="408" 
d="M73 0v224h262v-170q0 -57 -19 -103t-48 -73.5t-66 -46.5t-68.5 -26.5t-60.5 -8.5v90q112 13 118 114h-118zM73 323v224h262v-224h-262z" />
    <glyph glyph-name="less" unicode="&#x3c;" horiz-adv-x="600" 
d="M47 177v152l506 191v-138l-345 -129l345 -129v-138z" />
    <glyph glyph-name="equal" unicode="=" horiz-adv-x="600" 
d="M47 293v144h506v-144h-506zM47 69v144h506v-144h-506z" />
    <glyph glyph-name="greater" unicode="&#x3e;" horiz-adv-x="600" 
d="M47 -14v138l345 129l-345 129v138l506 -191v-152z" />
    <glyph glyph-name="question" unicode="?" horiz-adv-x="852" 
d="M301 470h-282q19 145 100 204q90 65 313 65q393 0 393 -209q0 -57 -25.5 -95t-103.5 -67q-95 -35 -120 -49t-31 -33h-256q1 33 5 51t20.5 39t51.5 37.5t94 34.5q43 13 60 29.5t17 42.5t-26 44.5t-84 18.5q-126 0 -126 -113zM286 0v224h262v-224h-262z" />
    <glyph glyph-name="at" unicode="@" horiz-adv-x="800" 
d="M310 334q0 -37 20.5 -61t54.5 -24q45 0 74 31.5t29 76.5q0 37 -21.5 60t-56.5 23q-41 0 -70.5 -32.5t-29.5 -73.5zM520 491l12 50h98l-45 -244q-16 -57 7 -57q36 0 65 40t29 116q-1 119 -76 183t-196 64q-128 0 -205.5 -80t-76.5 -207q0 -131 83.5 -208t217.5 -77
q114 0 195 59h104q-115 -155 -308 -155q-169 0 -287.5 108t-118.5 273q0 162 117 272.5t283 110.5q93 0 175.5 -37t135.5 -109.5t53 -163.5q0 -66 -22.5 -119.5t-55 -85t-71.5 -52.5t-69 -29t-51 -8q-23 0 -38.5 13t-16.5 37h-2q-19 -21 -46.5 -35.5t-52.5 -14.5
q-68 0 -120.5 54.5t-52.5 127.5q0 96 58.5 166.5t151.5 70.5q85 0 126 -63z" />
    <glyph glyph-name="A" unicode="A" horiz-adv-x="888" 
d="M529 256l-84 242h-2l-84 -242h170zM-33 0l304 714h346l304 -714h-300l-30 82h-294l-30 -82h-300z" />
    <glyph glyph-name="B" unicode="B" horiz-adv-x="1000" 
d="M345 540v-92h213q40 0 55 12t15 35q0 22 -15 33.5t-55 11.5h-213zM345 286v-112h241q73 0 73 56t-73 56h-241zM69 0v714h642q211 0 211 -178q0 -48 -22.5 -85.5t-62.5 -53.5v-2q62 -16 92 -65t30 -98q0 -112 -65 -172t-214 -60h-611z" />
    <glyph glyph-name="C" unicode="C" horiz-adv-x="1019" 
d="M670 278h318q-30 -155 -120 -222q-107 -81 -349 -81q-47 0 -81.5 1.5t-89 9.5t-94 22.5t-84.5 43t-73 68t-47 100.5t-19 137t19 137t47 100.5t73 68t84.5 43t94 22.5t89 9.5t81.5 1.5q43 0 78 -2t82 -9t84.5 -19.5t77.5 -35.5t68 -54.5t49.5 -78.5t29.5 -106h-318
q-8 50 -43 87.5t-108 37.5q-188 0 -188 -202q0 -104 46 -153t128 -49q67 0 107.5 29.5t57.5 93.5z" />
    <glyph glyph-name="D" unicode="D" horiz-adv-x="1019" 
d="M351 534v-354h162q94 0 137.5 45t43.5 132t-43.5 132t-137.5 45h-162zM69 0v714h549q188 0 279 -82.5t91 -274.5q0 -185 -91.5 -271t-272.5 -86h-555z" />
    <glyph glyph-name="E" unicode="E" horiz-adv-x="852" 
d="M69 0v714h759v-174h-477v-96h443v-174h-443v-96h477v-174h-759z" />
    <glyph glyph-name="F" unicode="F" horiz-adv-x="796" 
d="M69 0v714h723v-174h-441v-109h406v-174h-406v-257h-282z" />
    <glyph glyph-name="G" unicode="G" horiz-adv-x="1038" 
d="M577 245v162h401v-407h-121l-32 65q-55 -49 -130 -69.5t-197 -20.5q-467 0 -467 379q0 90 28 159.5t73 111.5t108 68.5t125 36t132 9.5q234 0 351 -65.5t134 -204.5h-318q-11 51 -55 73q-35 17 -96 17q-188 0 -188 -202t210 -202q125 0 158 90h-116z" />
    <glyph glyph-name="H" unicode="H" horiz-adv-x="1019" 
d="M668 0v285h-317v-285h-282v714h282v-249h317v249h282v-714h-282z" />
    <glyph glyph-name="I" unicode="I" horiz-adv-x="426" 
d="M72 0v714h282v-714h-282z" />
    <glyph glyph-name="J" unicode="J" horiz-adv-x="796" 
d="M459 260v454h282v-433q0 -59 -7.5 -102t-29.5 -83.5t-60 -65.5t-101.5 -40t-152.5 -15q-107 0 -176.5 14.5t-117.5 51t-69 99t-21 159.5h282q0 -86 13 -113q18 -37 72 -37q45 0 65.5 26.5t20.5 84.5z" />
    <glyph glyph-name="K" unicode="K" horiz-adv-x="981" 
d="M639 0l-195 274l-93 -82v-192h-282v714h282v-252l262 252h374l-319 -276l346 -438h-375z" />
    <glyph glyph-name="L" unicode="L" horiz-adv-x="796" 
d="M69 0v714h282v-522h437v-192h-719z" />
    <glyph glyph-name="M" unicode="M" horiz-adv-x="1168" 
d="M69 0v714h397l117 -415h2l117 415h397v-714h-256v510h-2l-150 -510h-214l-150 510h-2v-510h-256z" />
    <glyph glyph-name="N" unicode="N" horiz-adv-x="1019" 
d="M69 0v714h322l286 -396h3v396h270v-714h-309l-300 400h-2v-400h-270z" />
    <glyph glyph-name="O" unicode="O" horiz-adv-x="1038" 
d="M31 357q0 76 19 137t47 100.5t73 68t84.5 43t94 22.5t89 9.5t81.5 1.5t81.5 -1.5t89 -9.5t94 -22.5t84.5 -43t73 -68t47 -100.5t19 -137t-19 -137t-47 -100.5t-73 -68t-84.5 -43t-94 -22.5t-89 -9.5t-81.5 -1.5t-81.5 1.5t-89 9.5t-94 22.5t-84.5 43t-73 68t-47 100.5
t-19 137zM331 357q0 -202 188 -202t188 202t-188 202t-188 -202z" />
    <glyph glyph-name="P" unicode="P" horiz-adv-x="944" 
d="M69 0v714h582q145 0 209.5 -62.5t64.5 -186.5q0 -111 -65 -177t-207 -66h-302v-222h-282zM351 546v-150h182q53 0 75.5 17.5t22.5 56.5q0 41 -22.5 58.5t-75.5 17.5h-182z" />
    <glyph glyph-name="Q" unicode="Q" horiz-adv-x="1038" 
d="M508 199l116 125l69 -61q14 39 14 94q0 202 -188 202t-188 -202t188 -202q12 0 34 2zM889 -147l-157 142q-32 -8 -89 -14q-55 -6 -124 -6q-47 0 -81.5 1.5t-89 9.5t-94 22.5t-84.5 43t-73 68t-47 100.5t-19 137t19 137t47 100.5t73 68t84.5 43t94 22.5t89 9.5t81.5 1.5
t81.5 -1.5t89 -9.5t94 -22.5t84.5 -43t73 -68t47 -100.5t19 -137q0 -186 -105 -279l105 -94z" />
    <glyph glyph-name="R" unicode="R" horiz-adv-x="962" 
d="M69 0v714h594q116 0 169 -26q41 -20 69 -68t28 -105q0 -56 -26.5 -101t-83.5 -62v-2q33 -10 55 -37.5t26 -72.5l12 -156q4 -47 35 -84h-308q-2 4 -3.5 9t-3 12.5t-2 14t-1.5 19t-1.5 21t-1.5 27.5t-2 32q-2 42 -19 63.5t-54 21.5h-200v-220h-282zM351 534v-134h200
q78 0 78 67q0 38 -21.5 52.5t-60.5 14.5h-196z" />
    <glyph glyph-name="S" unicode="S" horiz-adv-x="962" 
d="M551 255l-322 48q-99 15 -147 68.5t-48 132.5q0 67 31 114.5t89.5 73t129.5 36.5t163 11q233 0 342 -58.5t117 -175.5h-328q0 40 -43 57q-34 15 -88 15q-113 0 -113 -51q0 -32 37 -37l337 -50q230 -34 230 -208q0 -131 -111 -193.5t-348 -62.5q-73 0 -131.5 4.5
t-121.5 19.5t-105 40.5t-69.5 70t-27.5 105.5h340q1 -35 30 -51q31 -15 96 -15q112 0 112 58q0 40 -51 48z" />
    <glyph glyph-name="T" unicode="T" horiz-adv-x="796" 
d="M257 0v534h-261v180h804v-180h-261v-534h-282z" />
    <glyph glyph-name="U" unicode="U" horiz-adv-x="962" 
d="M54 271v443h282v-432q0 -66 36 -93.5t109 -27.5t109 27.5t36 93.5v432h282v-443q0 -165 -101 -230.5t-326 -65.5t-326 65.5t-101 230.5z" />
    <glyph glyph-name="V" unicode="V" horiz-adv-x="852" 
d="M278 0l-320 714h310l157 -458h2l157 458h310l-320 -714h-296z" />
    <glyph glyph-name="W" unicode="W" horiz-adv-x="1166" 
d="M207 0l-208 714h273l92 -436h2l105 436h225l104 -436h2l92 436h273l-209 -714h-277l-97 396h-2l-98 -396h-277z" />
    <glyph glyph-name="X" unicode="X" horiz-adv-x="888" 
d="M-36 0l321 373l-279 341h331l107 -156l107 156h331l-279 -341l321 -373h-348l-132 184l-132 -184h-348z" />
    <glyph glyph-name="Y" unicode="Y" horiz-adv-x="832" 
d="M275 0v201l-317 513h322l136 -280l136 280h322l-317 -513v-201h-282z" />
    <glyph glyph-name="Z" unicode="Z" horiz-adv-x="852" 
d="M22 0v151l428 383h-399v180h779v-156l-418 -378h407v-180h-797z" />
    <glyph glyph-name="bracketleft" unicode="[" horiz-adv-x="500" 
d="M53 -190v904h434v-180h-184v-544h184v-180h-434z" />
    <glyph glyph-name="backslash" unicode="\" horiz-adv-x="444" 
d="M273 -25l-279 764h177l279 -764h-177z" />
    <glyph glyph-name="bracketright" unicode="]" horiz-adv-x="500" 
d="M13 -190v180h184v544h-184v180h434v-904h-434z" />
    <glyph glyph-name="asciicircum" unicode="^" horiz-adv-x="600" 
d="M410 329l-110 239l-110 -239h-147l174 365h166l174 -365h-147z" />
    <glyph glyph-name="underscore" unicode="_" horiz-adv-x="500" 
d="M0 -125v50h500v-50h-500z" />
    <glyph glyph-name="grave" unicode="`" horiz-adv-x="278" 
d="M50 601l-153 144h303l91 -144h-241z" />
    <glyph glyph-name="a" unicode="a" 
d="M314 381h-250q22 110 108 150q83 38 284 38q193 0 274.5 -49.5t81.5 -170.5v-264q0 -51 23 -85h-256q-7 24 -9 54q-82 -76 -274 -76q-134 0 -204 42.5t-70 142.5q0 161 256 172l211 10q37 2 52 12t15 33q0 53 -116 53q-112 0 -126 -62zM562 225v24q-39 -8 -202 -23
q-35 -3 -51.5 -15.5t-16.5 -38.5q0 -62 93 -62q177 0 177 115z" />
    <glyph glyph-name="b" unicode="b" 
d="M60 0v739h250v-254h2q64 77 217 77q62 0 117 -17.5t99 -52t69.5 -91.5t25.5 -131t-25.5 -131t-69.5 -91.5t-99 -52t-117 -17.5q-156 0 -225 80h-2v-58h-242zM310 270q0 -124 137 -124q70 0 103.5 33.5t33.5 90.5q0 55 -35.5 89.5t-100.5 34.5q-138 0 -138 -124z" />
    <glyph glyph-name="c" unicode="c" 
d="M842 327h-262q-4 48 -47 69q-33 17 -90 17q-79 0 -115 -37.5t-36 -97.5q0 -64 38 -101t111 -37q57 0 92 20.5t47 70.5h262q-7 -65 -36 -113t-66.5 -74.5t-92 -41.5t-101 -19.5t-106.5 -4.5q-410 0 -410 297q0 294 410 294q184 0 283 -55t119 -187z" />
    <glyph glyph-name="d" unicode="d" 
d="M568 0v58h-2q-69 -80 -225 -80q-62 0 -117 17.5t-99 52t-69.5 91.5t-25.5 131t25.5 131t69.5 91.5t99 52t117 17.5q153 0 217 -77h2v254h250v-739h-242zM560 270q0 124 -138 124q-65 0 -100.5 -34.5t-35.5 -89.5q0 -57 33.5 -90.5t103.5 -33.5q137 0 137 124z" />
    <glyph glyph-name="e" unicode="e" 
d="M286 341h298q-4 44 -44 70t-104 26q-67 0 -103.5 -22.5t-46.5 -73.5zM567 164h266q-29 -88 -125 -136q-100 -50 -265 -50q-200 0 -306.5 74t-106.5 222q0 141 102.5 218t287.5 77q76 0 137 -10.5t114.5 -35.5t89.5 -65t56 -101.5t19 -141.5h-550q0 -36 38 -67.5
t113 -31.5q92 0 130 48z" />
    <glyph glyph-name="f" unicode="f" horiz-adv-x="519" 
d="M125 0v391h-116v156h116v58q0 76 50 108t171 32q102 0 164 -6v-132h-75q-34 0 -47 -10.5t-13 -33.5v-16h135v-156h-135v-391h-250z" />
    <glyph glyph-name="g" unicode="g" horiz-adv-x="888" 
d="M578 46v47q-67 -59 -217 -59q-161 0 -246 67.5t-85 196.5q0 125 93 194.5t238 69.5q146 0 225 -77v62h242v-508q0 -128 -94.5 -185.5t-286.5 -57.5q-202 0 -290 44t-106 148h276q6 -28 31 -40q28 -14 83 -14q75 0 106 27t31 85zM578 293q0 47 -34.5 77t-109.5 30
q-73 0 -107.5 -30t-34.5 -77q0 -48 34.5 -78.5t107.5 -30.5q75 0 109.5 30.5t34.5 78.5z" />
    <glyph glyph-name="h" unicode="h" horiz-adv-x="832" 
d="M60 0v739h250v-260h2q22 32 79 57.5t139 25.5q110 0 176 -52.5t66 -161.5v-348h-250v283q0 99 -96 99q-52 0 -84 -32.5t-32 -97.5v-252h-250z" />
    <glyph glyph-name="i" unicode="i" horiz-adv-x="370" 
d="M60 0v547h250v-547h-250zM60 601v138h250v-138h-250z" />
    <glyph glyph-name="j" unicode="j" horiz-adv-x="389" 
d="M-25 -190v174h46q36 0 47 10t11 49v504h250v-543q0 -53 -10 -89.5t-27 -58t-46.5 -33.5t-60 -15.5t-77.5 -3.5q-88 0 -133 6zM79 601v138h250v-138h-250z" />
    <glyph glyph-name="k" unicode="k" horiz-adv-x="832" 
d="M60 0v739h250v-369l189 177h332l-249 -204l274 -343h-338l-130 184l-78 -64v-120h-250z" />
    <glyph glyph-name="l" unicode="l" horiz-adv-x="370" 
d="M60 0v739h250v-739h-250z" />
    <glyph glyph-name="m" unicode="m" horiz-adv-x="1166" 
d="M60 0v547h242v-75h2q69 90 204 90q76 0 116.5 -23t64.5 -68q62 91 201 91q97 0 156.5 -45t59.5 -140v-377h-250v309q0 40 -16.5 56.5t-50.5 16.5q-85 0 -85 -92v-290h-242v309q0 40 -16.5 56.5t-50.5 16.5q-85 0 -85 -92v-290h-250z" />
    <glyph glyph-name="n" unicode="n" horiz-adv-x="832" 
d="M60 0v547h242v-68h2q23 31 83.5 57t142.5 26q110 0 176 -52.5t66 -161.5v-348h-250v283q0 99 -96 99q-52 0 -84 -32.5t-32 -97.5v-252h-250z" />
    <glyph glyph-name="o" unicode="o" 
d="M292 274q0 -134 143 -134q74 0 108.5 33.5t34.5 100.5q0 133 -143 133t-143 -133zM30 274q0 152 97.5 223.5t307.5 71.5t307.5 -71.5t97.5 -223.5t-97.5 -224t-307.5 -72t-307.5 72t-97.5 224z" />
    <glyph glyph-name="p" unicode="p" 
d="M60 -196v743h242v-65h2q69 80 225 80q62 0 117 -17.5t99 -52t69.5 -91.5t25.5 -131t-25.5 -131t-69.5 -91.5t-99 -52t-117 -17.5q-153 0 -217 77h-2v-251h-250zM310 270q0 -124 138 -124q65 0 100.5 34.5t35.5 89.5q0 57 -33.5 90.5t-103.5 33.5q-137 0 -137 -124z" />
    <glyph glyph-name="q" unicode="q" 
d="M560 -196v251h-2q-64 -77 -217 -77q-62 0 -117 17.5t-99 52t-69.5 91.5t-25.5 131t25.5 131t69.5 91.5t99 52t117 17.5q156 0 225 -80h2v65h242v-743h-250zM560 270q0 124 -137 124q-70 0 -103.5 -33.5t-33.5 -90.5q0 -55 35.5 -89.5t100.5 -34.5q138 0 138 124z" />
    <glyph glyph-name="r" unicode="r" horiz-adv-x="630" 
d="M60 0v547h242v-105h2q92 120 233 120q41 0 82 -6v-224q-80 20 -125 20q-29 0 -53.5 -4t-49.5 -14t-42 -26t-28 -42.5t-11 -60.5v-205h-250z" />
    <glyph glyph-name="s" unicode="s" horiz-adv-x="815" 
d="M469 192l-244 25q-104 11 -145.5 52t-41.5 116q0 96 89.5 140t274.5 44q356 0 362 -186h-282q0 23 -19 34q-25 14 -74 14q-52 0 -70.5 -10t-18.5 -28q0 -28 67 -34l238 -21q98 -9 142 -50.5t44 -114.5q0 -104 -92.5 -149.5t-293.5 -45.5q-196 0 -285.5 44.5t-95.5 147.5
h294q4 -31 31 -44q22 -10 71 -10q83 0 83 42q0 30 -34 34z" />
    <glyph glyph-name="t" unicode="t" horiz-adv-x="537" 
d="M9 391v156h116v176h250v-176h135v-156h-135v-193q0 -36 15.5 -45t59.5 -9q19 0 67 2v-146q-88 -12 -182 -12q-119 0 -164.5 35t-45.5 143v225h-116z" />
    <glyph glyph-name="u" unicode="u" horiz-adv-x="832" 
d="M772 547v-547h-242v61h-2q-23 -31 -83.5 -57t-142.5 -26q-110 0 -176 52.5t-66 161.5v355h250v-290q0 -99 96 -99q58 0 87 34t29 97v258h250z" />
    <glyph glyph-name="v" unicode="v" horiz-adv-x="760" 
d="M237 0l-253 547h282l113 -327h2l113 327h282l-253 -547h-286z" />
    <glyph glyph-name="w" unicode="w" horiz-adv-x="1166" 
d="M186 0l-186 547h267l89 -323h2l119 323h212l109 -323h2l99 323h267l-186 -547h-291l-106 286l-106 -286h-291z" />
    <glyph glyph-name="x" unicode="x" horiz-adv-x="832" 
d="M308 0h-318l252 286l-231 261h306l99 -147l99 147h306l-235 -261l256 -286h-318l-108 155z" />
    <glyph glyph-name="y" unicode="y" horiz-adv-x="722" 
d="M63 -187v162q30 -3 62 -3q43 0 61 7t32 35l14 30l-254 503h262l121 -281l121 281h262l-307 -636q-21 -43 -41 -63.5t-58.5 -32t-104.5 -11.5q-67 0 -170 9z" />
    <glyph glyph-name="z" unicode="z" horiz-adv-x="704" 
d="M25 0v138l309 239v2h-291v168h627v-144l-293 -227v-2h302v-174h-654z" />
    <glyph glyph-name="braceleft" unicode="{" horiz-adv-x="500" 
d="M-7 178v168q47 0 73.5 19.5t26.5 74.5v133q0 66 39 103.5t104 37.5h220v-168h-55q-58 0 -58 -62v-100q0 -59 -24.5 -87.5t-83.5 -33.5v-2q59 -5 83.5 -33.5t24.5 -87.5v-100q0 -62 58 -62h55v-168h-220q-65 0 -104 37.5t-39 103.5v133q0 55 -26.5 74.5t-73.5 19.5z" />
    <glyph glyph-name="bar" unicode="|" horiz-adv-x="278" 
d="M55 -25v764h168v-764h-168z" />
    <glyph glyph-name="braceright" unicode="}" horiz-adv-x="500" 
d="M507 346v-168q-47 0 -73.5 -19.5t-26.5 -74.5v-133q0 -66 -39 -103.5t-104 -37.5h-220v168h55q58 0 58 62v100q0 59 24.5 87.5t83.5 33.5v2q-59 5 -83.5 33.5t-24.5 87.5v100q0 62 -58 62h-55v168h220q65 0 104 -37.5t39 -103.5v-133q0 -55 26.5 -74.5t73.5 -19.5z" />
    <glyph glyph-name="asciitilde" unicode="~" horiz-adv-x="600" 
d="M105 145l-36 126q44 88 125 88q39 0 111 -32q74 -36 102 -36q27 0 46.5 18t41.5 52l36 -128q-20 -27 -33 -42t-38 -29.5t-54 -14.5q-42 0 -102 33q-62 35 -115 35q-50 0 -84 -70z" />
    <glyph glyph-name="uni00A0" unicode="&#xa0;" horiz-adv-x="408" 
 />
    <glyph glyph-name="exclamdown" unicode="&#xa1;" horiz-adv-x="408" 
d="M69 -167l30 439h212l28 -439h-270zM73 323v224h262v-224h-262z" />
    <glyph glyph-name="cent" unicode="&#xa2;" horiz-adv-x="964" 
d="M441 142v271q-119 -11 -119 -134q0 -130 119 -137zM441 -129v109q-381 11 -381 296q0 282 381 293v95h60v-95q167 -4 257.5 -59.5t109.5 -182.5h-262q-2 42 -30 61t-75 25v-271q92 8 111 88h262q-7 -61 -33 -107t-60.5 -72t-84 -42.5t-94.5 -22t-101 -6.5v-109h-60z" />
    <glyph glyph-name="sterling" unicode="&#xa3;" horiz-adv-x="964" 
d="M78 297v120h61q-29 46 -29 96q0 201 376 201q116 0 195 -17.5t121 -52.5t59 -77.5t17 -101.5v-21h-294q0 51 -20 71q-19 19 -71 19q-83 0 -83 -57q0 -18 11 -60h140v-120h-139q-12 -56 -88 -115l2 -2q44 30 110 30q18 0 104 -10t113 -10q92 0 167 58l75 -190
q-115 -78 -234 -78q-72 0 -197 22t-142 22q-99 0 -164 -44l-101 169q45 31 66.5 61.5t21.5 73.5v13h-77z" />
    <glyph glyph-name="currency" unicode="&#xa4;" horiz-adv-x="600" 
d="M174 347q0 -59 37 -95.5t89 -36.5t89 36.5t37 95.5t-37 95.5t-89 36.5t-89 -36.5t-37 -95.5zM11 148l59 59q-40 63 -40 140q0 79 43 144l-62 61l86 82l60 -59q64 42 143 42q78 0 143 -42l60 59l86 -82l-61 -61q42 -65 42 -144q0 -77 -40 -140l59 -59l-80 -88l-62 61
q-66 -44 -147 -44q-83 0 -147 44l-62 -61z" />
    <glyph glyph-name="yen" unicode="&#xa5;" horiz-adv-x="964" 
d="M341 0v84h-181v120h181v63h-181v120h100l-216 307h312l126 -300l126 300h312l-216 -307h100v-120h-181v-63h181v-120h-181v-84h-282z" />
    <glyph glyph-name="brokenbar" unicode="&#xa6;" horiz-adv-x="278" 
d="M55 -25v299h168v-299h-168zM55 440v299h168v-299h-168z" />
    <glyph glyph-name="section" unicode="&#xa7;" horiz-adv-x="964" 
d="M859 519h-270q0 38 -38 53q-29 11 -96 11q-56 0 -76.5 -9t-20.5 -27q0 -24 26 -29l298 -54q134 -25 194 -70.5t60 -138.5q0 -59 -24 -94.5t-69 -57.5q46 -39 46 -100q0 -100 -92.5 -153.5t-303.5 -53.5q-380 0 -417 225h270q6 -42 38.5 -58.5t116.5 -16.5q112 0 112 42
q0 29 -39 36l-324 65q-101 20 -161.5 72.5t-60.5 131.5q0 132 103 165q-29 41 -29 79q0 202 356 202q373 0 401 -220zM653 278l-373 81q-20 -22 -20 -45q0 -19 10.5 -30t37.5 -17l388 -81q15 24 15 41q0 18 -12 30.5t-46 20.5z" />
    <glyph glyph-name="dieresis" unicode="&#xa8;" horiz-adv-x="278" 
d="M-142 607v132h242v-132h-242zM178 607v132h242v-132h-242z" />
    <glyph glyph-name="copyright" unicode="&#xa9;" horiz-adv-x="800" 
d="M482 297h110q-10 -77 -60 -117.5t-123 -40.5q-97 0 -154 60t-57 154q0 96 55.5 155.5t153.5 59.5q75 0 122.5 -39.5t58.5 -115.5h-106q-11 59 -81 59q-43 0 -66 -31t-23 -86q0 -52 25 -86t66 -34q75 0 79 62zM144 357q0 -121 73.5 -194.5t182.5 -73.5t182.5 73.5
t73.5 194.5t-73.5 194.5t-182.5 73.5t-182.5 -73.5t-73.5 -194.5zM18 357q0 158 112 270t270 112t270 -112t112 -270t-112 -270t-270 -112t-270 112t-112 270z" />
    <glyph glyph-name="ordfeminine" unicode="&#xaa;" horiz-adv-x="566" 
d="M213 594h-186q7 40 23 62.5t47 35.5q54 22 204 22q121 0 185 -26t64 -98v-167q0 -25 17 -59h-192q-5 25 -6 27q-48 -39 -173 -39q-100 0 -148.5 26.5t-48.5 88.5q0 75 86 94q27 6 62.5 9t97 6t76.5 4q40 3 40 15q0 29 -70 29q-68 0 -78 -30zM364 500v14q-27 -5 -119 -14
q-44 -3 -44 -31q0 -10 15 -18.5t39 -8.5q45 0 77 13.5t32 44.5z" />
    <glyph glyph-name="guillemotleft" unicode="&#xab;" horiz-adv-x="685" 
d="M365 195v198l216 161v-168l-125 -92l125 -92v-168zM88 195v198l216 161v-168l-125 -92l125 -92v-168z" />
    <glyph glyph-name="logicalnot" unicode="&#xac;" horiz-adv-x="600" 
d="M409 108v185h-362v144h506v-329h-144z" />
    <glyph glyph-name="uni00AD" unicode="&#xad;" horiz-adv-x="481" 
d="M59 207v174h363v-174h-363z" />
    <glyph glyph-name="registered" unicode="&#xae;" horiz-adv-x="800" 
d="M340 394h78q29 0 42.5 11t13.5 41q0 38 -77 38h-57v-90zM456 154l-95 162h-21v-162h-96v408h155q89 0 133 -28t44 -98q0 -109 -113 -114l99 -168h-106zM144 357q0 -121 73.5 -194.5t182.5 -73.5t182.5 73.5t73.5 194.5t-73.5 194.5t-182.5 73.5t-182.5 -73.5
t-73.5 -194.5zM18 357q0 158 112 270t270 112t270 -112t112 -270t-112 -270t-270 -112t-270 112t-112 270z" />
    <glyph glyph-name="macron" unicode="&#xaf;" horiz-adv-x="278" 
d="M-146 607v132h570v-132h-570z" />
    <glyph glyph-name="degree" unicode="&#xb0;" horiz-adv-x="400" 
d="M131 555q0 -29 20.5 -49t48.5 -20t48.5 20t20.5 49t-20.5 49t-48.5 20t-48.5 -20t-20.5 -49zM41 555q0 66 46.5 112.5t112.5 46.5t112.5 -46.5t46.5 -112.5t-46.5 -112.5t-112.5 -46.5t-112.5 46.5t-46.5 112.5z" />
    <glyph glyph-name="plusminus" unicode="&#xb1;" horiz-adv-x="600" 
d="M228 415v91h144v-91h181v-144h-181v-91h-144v91h-181v144h181zM47 0v144h506v-144h-506z" />
    <glyph glyph-name="twosuperior" unicode="&#xb2;" horiz-adv-x="627" 
d="M239 516l149 31q19 3 19 23q0 30 -74 30q-30 0 -48.5 -3t-36 -18t-20.5 -44h-210q4 46 23.5 80t47 52.5t67.5 29.5t75 14t80 3q65 0 114.5 -6t93 -20.5t67 -43.5t23.5 -71q0 -53 -46 -83t-107 -40l-164 -28q-53 -10 -81 -20v-2h377v-114h-570q1 57 19.5 99.5t52.5 68
t68.5 39.5t80.5 23z" />
    <glyph glyph-name="threesuperior" unicode="&#xb3;" horiz-adv-x="627" 
d="M223 451v102h126q50 0 50 23q0 30 -82 30q-45 0 -59 -4.5t-23 -19.5h-206q6 73 76.5 102.5t210.5 29.5q155 0 220 -27.5t65 -91.5q0 -31 -18 -53t-72 -32v-2q103 -17 103 -98q0 -136 -285 -136q-45 0 -76 1.5t-70.5 6t-66 14.5t-51 25.5t-37.5 41.5t-15 60h202
q3 -19 25 -29q22 -12 78 -12q94 0 94 37q0 32 -71 32h-118z" />
    <glyph glyph-name="acute" unicode="&#xb4;" horiz-adv-x="278" 
d="M-13 601l91 144h303l-153 -144h-241z" />
    <glyph glyph-name="mu" unicode="&#xb5;" horiz-adv-x="832" 
d="M772 547v-547h-242v61h-2q-25 -39 -61 -61t-71 -22q-51 0 -84 40h-2v-214h-250v743h250v-290q0 -99 96 -99q58 0 87 34t29 97v258h250z" />
    <glyph glyph-name="paragraph" unicode="&#xb6;" horiz-adv-x="666" 
d="M231 -179v481q-111 0 -172 51.5t-61 152.5q0 63 19.5 105.5t57 64t80 30t99.5 8.5h384v-893h-156v779h-95v-779h-156z" />
    <glyph glyph-name="periodcentered" unicode="&#xb7;" horiz-adv-x="408" 
d="M73 244q0 54 38.5 92.5t92.5 38.5t92.5 -38.5t38.5 -92.5t-38.5 -92.5t-92.5 -38.5t-92.5 38.5t-38.5 92.5z" />
    <glyph glyph-name="cedilla" unicode="&#xb8;" horiz-adv-x="278" 
d="M-14 -196l16 51q46 -11 83 -11q45 0 45 29q0 8 -11 13.5t-24 5.5q-14 0 -35 -8l-27 21l58 83h76l-26 -38q20 2 35 2q116 0 116 -79q0 -89 -156 -89q-46 0 -150 20z" />
    <glyph glyph-name="onesuperior" unicode="&#xb9;" horiz-adv-x="434" 
d="M180 286v239h-138v114h28q62 2 94.5 18t48.5 57h153v-428h-186z" />
    <glyph glyph-name="ordmasculine" unicode="&#xba;" horiz-adv-x="566" 
d="M200 537q0 -33 21.5 -52t61.5 -19t61.5 19t21.5 52q0 28 -21.5 45.5t-61.5 17.5t-61.5 -17.5t-21.5 -45.5zM8 537q0 92 65 134.5t210 42.5t210 -42.5t65 -134.5q0 -97 -64.5 -141t-210.5 -44t-210.5 44t-64.5 141z" />
    <glyph glyph-name="guillemotright" unicode="&#xbb;" horiz-adv-x="685" 
d="M104 386v168l216 -161v-198l-216 -161v168l125 92zM381 386v168l216 -161v-198l-216 -161v168l125 92z" />
    <glyph glyph-name="onequarter" unicode="&#xbc;" horiz-adv-x="1444" 
d="M739 70v111l260 247h252v-248h82v-110h-82v-70h-180v70h-332zM1071 180v128l-140 -128h140zM180 286v239h-138v114h28q62 2 94.5 18t48.5 57h153v-428h-186zM294 -20l468 734h128l-468 -734h-128z" />
    <glyph glyph-name="onehalf" unicode="&#xbd;" horiz-adv-x="1444" 
d="M314 -20l468 734h128l-468 -734h-128zM200 286v239h-138v114h28q62 2 94.5 18t48.5 57h153v-428h-186zM997 230l133 27q35 7 35 27q0 30 -74 30q-22 0 -36.5 -1.5t-31 -7.5t-26 -20t-11.5 -35h-210q4 46 23.5 79.5t47 52t67.5 29.5t75 14t80 3q65 0 114.5 -6t93 -20.5
t67 -43.5t23.5 -71q0 -53 -46 -83t-107 -40l-164 -28q-53 -10 -81 -20v-2h377v-114h-570q1 57 19.5 99.5t52.5 68t68.5 39.5t80.5 23z" />
    <glyph glyph-name="threequarters" unicode="&#xbe;" horiz-adv-x="1444" 
d="M443 -20l468 734h128l-468 -734h-128zM242 451v102h126q50 0 50 23q0 30 -82 30q-45 0 -59 -4.5t-23 -19.5h-206q6 73 76.5 102.5t210.5 29.5q155 0 220 -27.5t65 -91.5q0 -31 -18 -53t-72 -32v-2q103 -17 103 -98q0 -136 -285 -136q-45 0 -76 1.5t-70.5 6t-66 14.5
t-51 25.5t-37.5 41.5t-15 60h202q3 -19 25 -29q23 -12 78 -12q94 0 94 37q0 32 -71 32h-118zM1150 180v128l-140 -128h140zM818 70v111l260 247h252v-248h82v-110h-82v-70h-180v70h-332z" />
    <glyph glyph-name="questiondown" unicode="&#xbf;" horiz-adv-x="852" 
d="M551 77h282q-19 -145 -100 -204q-90 -65 -313 -65q-393 0 -393 209q0 57 25.5 95t103.5 67q95 35 120 49t31 33h256q-1 -33 -5 -51t-20.5 -39t-51.5 -37.5t-94 -34.5q-43 -13 -60 -29.5t-17 -42.5t26 -44.5t84 -18.5q126 0 126 113zM566 547v-224h-262v224h262z" />
    <glyph glyph-name="Agrave" unicode="&#xc0;" horiz-adv-x="888" 
d="M529 256l-84 242h-2l-84 -242h170zM-33 0l304 714h346l304 -714h-300l-30 82h-294l-30 -82h-300zM355 768l-153 144h303l91 -144h-241z" />
    <glyph glyph-name="Aacute" unicode="&#xc1;" horiz-adv-x="888" 
d="M529 256l-84 242h-2l-84 -242h170zM-33 0l304 714h346l304 -714h-300l-30 82h-294l-30 -82h-300zM292 768l91 144h303l-153 -144h-241z" />
    <glyph glyph-name="Acircumflex" unicode="&#xc2;" horiz-adv-x="888" 
d="M529 256l-84 242h-2l-84 -242h170zM-33 0l304 714h346l304 -714h-300l-30 82h-294l-30 -82h-300zM110 768l155 144h358l155 -144h-279l-68 76l-68 -76h-253z" />
    <glyph glyph-name="Atilde" unicode="&#xc3;" horiz-adv-x="888" 
d="M529 256l-84 242h-2l-84 -242h170zM-33 0l304 714h346l304 -714h-300l-30 82h-294l-30 -82h-300zM630 912h106q-17 -80 -57 -118t-94 -38q-27 0 -146.5 24t-139.5 24q-25 0 -40 -29h-107q43 155 163 155q22 0 142 -24q118 -24 130 -24q31 0 43 30z" />
    <glyph glyph-name="Adieresis" unicode="&#xc4;" horiz-adv-x="888" 
d="M529 256l-84 242h-2l-84 -242h170zM-33 0l304 714h346l304 -714h-300l-30 82h-294l-30 -82h-300zM163 774v132h242v-132h-242zM483 774v132h242v-132h-242z" />
    <glyph glyph-name="Aring" unicode="&#xc5;" horiz-adv-x="888" 
d="M529 256l-84 242h-2l-84 -242h170zM-33 0l304 714h346l304 -714h-300l-30 82h-294l-30 -82h-300zM306 873q0 57 40.5 97.5t97.5 40.5t97.5 -40.5t40.5 -97.5t-40.5 -97.5t-97.5 -40.5t-97.5 40.5t-40.5 97.5zM384 873q0 -25 17.5 -42.5t42.5 -17.5t42.5 17.5t17.5 42.5
t-17.5 42.5t-42.5 17.5t-42.5 -17.5t-17.5 -42.5z" />
    <glyph glyph-name="AE" unicode="&#xc6;" horiz-adv-x="1166" 
d="M-16 0l327 714h816v-174h-348v-96h334v-174h-334v-96h353v-174h-603v120h-204l-46 -120h-295zM529 282v264h-45l-99 -264h144z" />
    <glyph glyph-name="Ccedilla" unicode="&#xc7;" horiz-adv-x="1019" 
d="M670 278h318q-30 -155 -120 -222q-107 -80 -339 -80l-17 -26q20 2 35 2q116 0 116 -79q0 -89 -156 -89q-46 0 -150 20l16 51q46 -11 83 -11q45 0 45 29q0 8 -11 13.5t-24 5.5q-14 0 -35 -8l-27 21l49 71q-42 2 -78.5 6t-81 15.5t-80.5 28.5t-71 46.5t-58.5 67.5t-38 93.5
t-14.5 123.5q0 76 19 137t47 100.5t73 68t84.5 43t94 22.5t89 9.5t81.5 1.5q43 0 78 -2t82 -9t84.5 -19.5t77.5 -35.5t68 -54.5t49.5 -78.5t29.5 -106h-318q-8 50 -43 87.5t-108 37.5q-188 0 -188 -202q0 -104 46 -153t128 -49q67 0 107.5 29.5t57.5 93.5z" />
    <glyph glyph-name="Egrave" unicode="&#xc8;" horiz-adv-x="852" 
d="M69 0v714h759v-174h-477v-96h443v-174h-443v-96h477v-174h-759zM357 768l-153 144h303l91 -144h-241z" />
    <glyph glyph-name="Eacute" unicode="&#xc9;" horiz-adv-x="852" 
d="M69 0v714h759v-174h-477v-96h443v-174h-443v-96h477v-174h-759zM294 768l91 144h303l-153 -144h-241z" />
    <glyph glyph-name="Ecircumflex" unicode="&#xca;" horiz-adv-x="852" 
d="M69 0v714h759v-174h-477v-96h443v-174h-443v-96h477v-174h-759zM112 768l155 144h358l155 -144h-279l-68 76l-68 -76h-253z" />
    <glyph glyph-name="Edieresis" unicode="&#xcb;" horiz-adv-x="852" 
d="M69 0v714h759v-174h-477v-96h443v-174h-443v-96h477v-174h-759zM165 774v132h242v-132h-242zM485 774v132h242v-132h-242z" />
    <glyph glyph-name="Igrave" unicode="&#xcc;" horiz-adv-x="426" 
d="M72 0v714h282v-714h-282zM124 768l-153 144h303l91 -144h-241z" />
    <glyph glyph-name="Iacute" unicode="&#xcd;" horiz-adv-x="426" 
d="M72 0v714h282v-714h-282zM61 768l91 144h303l-153 -144h-241z" />
    <glyph glyph-name="Icircumflex" unicode="&#xce;" horiz-adv-x="426" 
d="M72 0v714h282v-714h-282zM-121 768l155 144h358l155 -144h-279l-68 76l-68 -76h-253z" />
    <glyph glyph-name="Idieresis" unicode="&#xcf;" horiz-adv-x="426" 
d="M72 0v714h282v-714h-282zM-68 774v132h242v-132h-242zM252 774v132h242v-132h-242z" />
    <glyph glyph-name="Eth" unicode="&#xd0;" horiz-adv-x="1019" 
d="M69 0v304h-69v126h69v284h555q181 0 272.5 -86t91.5 -271t-91.5 -271t-272.5 -86h-555zM532 304h-181v-124h162q94 0 137.5 45t43.5 132t-43.5 132t-137.5 45h-162v-104h181v-126z" />
    <glyph glyph-name="Ntilde" unicode="&#xd1;" horiz-adv-x="1019" 
d="M69 0v714h322l286 -396h3v396h270v-714h-309l-300 400h-2v-400h-270zM696 912h106q-17 -80 -57 -118t-94 -38q-27 0 -146.5 24t-139.5 24q-25 0 -40 -29h-107q43 155 163 155q22 0 142 -24q118 -24 130 -24q31 0 43 30z" />
    <glyph glyph-name="Ograve" unicode="&#xd2;" horiz-adv-x="1038" 
d="M31 357q0 76 19 137t47 100.5t73 68t84.5 43t94 22.5t89 9.5t81.5 1.5t81.5 -1.5t89 -9.5t94 -22.5t84.5 -43t73 -68t47 -100.5t19 -137t-19 -137t-47 -100.5t-73 -68t-84.5 -43t-94 -22.5t-89 -9.5t-81.5 -1.5t-81.5 1.5t-89 9.5t-94 22.5t-84.5 43t-73 68t-47 100.5
t-19 137zM331 357q0 -202 188 -202t188 202t-188 202t-188 -202zM430 768l-153 144h303l91 -144h-241z" />
    <glyph glyph-name="Oacute" unicode="&#xd3;" horiz-adv-x="1038" 
d="M31 357q0 76 19 137t47 100.5t73 68t84.5 43t94 22.5t89 9.5t81.5 1.5t81.5 -1.5t89 -9.5t94 -22.5t84.5 -43t73 -68t47 -100.5t19 -137t-19 -137t-47 -100.5t-73 -68t-84.5 -43t-94 -22.5t-89 -9.5t-81.5 -1.5t-81.5 1.5t-89 9.5t-94 22.5t-84.5 43t-73 68t-47 100.5
t-19 137zM331 357q0 -202 188 -202t188 202t-188 202t-188 -202zM367 768l91 144h303l-153 -144h-241z" />
    <glyph glyph-name="Ocircumflex" unicode="&#xd4;" horiz-adv-x="1038" 
d="M31 357q0 76 19 137t47 100.5t73 68t84.5 43t94 22.5t89 9.5t81.5 1.5t81.5 -1.5t89 -9.5t94 -22.5t84.5 -43t73 -68t47 -100.5t19 -137t-19 -137t-47 -100.5t-73 -68t-84.5 -43t-94 -22.5t-89 -9.5t-81.5 -1.5t-81.5 1.5t-89 9.5t-94 22.5t-84.5 43t-73 68t-47 100.5
t-19 137zM331 357q0 -202 188 -202t188 202t-188 202t-188 -202zM185 768l155 144h358l155 -144h-279l-68 76l-68 -76h-253z" />
    <glyph glyph-name="Otilde" unicode="&#xd5;" horiz-adv-x="1038" 
d="M31 357q0 76 19 137t47 100.5t73 68t84.5 43t94 22.5t89 9.5t81.5 1.5t81.5 -1.5t89 -9.5t94 -22.5t84.5 -43t73 -68t47 -100.5t19 -137t-19 -137t-47 -100.5t-73 -68t-84.5 -43t-94 -22.5t-89 -9.5t-81.5 -1.5t-81.5 1.5t-89 9.5t-94 22.5t-84.5 43t-73 68t-47 100.5
t-19 137zM331 357q0 -202 188 -202t188 202t-188 202t-188 -202zM705 912h106q-17 -80 -57 -118t-94 -38q-27 0 -146.5 24t-139.5 24q-26 0 -40 -29h-107q43 155 163 155q22 0 142 -24q118 -24 130 -24q31 0 43 30z" />
    <glyph glyph-name="Odieresis" unicode="&#xd6;" horiz-adv-x="1038" 
d="M31 357q0 76 19 137t47 100.5t73 68t84.5 43t94 22.5t89 9.5t81.5 1.5t81.5 -1.5t89 -9.5t94 -22.5t84.5 -43t73 -68t47 -100.5t19 -137t-19 -137t-47 -100.5t-73 -68t-84.5 -43t-94 -22.5t-89 -9.5t-81.5 -1.5t-81.5 1.5t-89 9.5t-94 22.5t-84.5 43t-73 68t-47 100.5
t-19 137zM331 357q0 -202 188 -202t188 202t-188 202t-188 -202zM238 774v132h242v-132h-242zM558 774v132h242v-132h-242z" />
    <glyph glyph-name="multiply" unicode="&#xd7;" horiz-adv-x="600" 
d="M199 253l-147 146l101 102l147 -145l146 145l102 -102l-146 -146l146 -146l-102 -102l-146 145l-147 -145l-101 102z" />
    <glyph glyph-name="Oslash" unicode="&#xd8;" horiz-adv-x="1038" 
d="M342 276l310 240q-46 43 -133 43q-188 0 -188 -202q0 -46 11 -81zM696 438l-310 -240q46 -43 133 -43q188 0 188 202q0 49 -11 81zM26 31l89 69q-84 92 -84 257q0 76 19 137t47 100.5t73 68t84.5 43t94 22.5t89 9.5t81.5 1.5q223 0 335 -67l104 81l54 -71l-88 -68
q83 -95 83 -257q0 -76 -19 -137t-47 -100.5t-73 -68t-84.5 -43t-94 -22.5t-89 -9.5t-81.5 -1.5q-223 0 -335 67l-105 -81z" />
    <glyph glyph-name="Ugrave" unicode="&#xd9;" horiz-adv-x="962" 
d="M54 271v443h282v-432q0 -66 36 -93.5t109 -27.5t109 27.5t36 93.5v432h282v-443q0 -165 -101 -230.5t-326 -65.5t-326 65.5t-101 230.5zM392 768l-153 144h303l91 -144h-241z" />
    <glyph glyph-name="Uacute" unicode="&#xda;" horiz-adv-x="962" 
d="M54 271v443h282v-432q0 -66 36 -93.5t109 -27.5t109 27.5t36 93.5v432h282v-443q0 -165 -101 -230.5t-326 -65.5t-326 65.5t-101 230.5zM329 768l91 144h303l-153 -144h-241z" />
    <glyph glyph-name="Ucircumflex" unicode="&#xdb;" horiz-adv-x="962" 
d="M54 271v443h282v-432q0 -66 36 -93.5t109 -27.5t109 27.5t36 93.5v432h282v-443q0 -165 -101 -230.5t-326 -65.5t-326 65.5t-101 230.5zM147 768l155 144h358l155 -144h-279l-68 76l-68 -76h-253z" />
    <glyph glyph-name="Udieresis" unicode="&#xdc;" horiz-adv-x="962" 
d="M54 271v443h282v-432q0 -66 36 -93.5t109 -27.5t109 27.5t36 93.5v432h282v-443q0 -165 -101 -230.5t-326 -65.5t-326 65.5t-101 230.5zM200 774v132h242v-132h-242zM520 774v132h242v-132h-242z" />
    <glyph glyph-name="Yacute" unicode="&#xdd;" horiz-adv-x="832" 
d="M275 0v201l-317 513h322l136 -280l136 280h322l-317 -513v-201h-282zM264 768l91 144h303l-153 -144h-241z" />
    <glyph glyph-name="Thorn" unicode="&#xde;" horiz-adv-x="944" 
d="M69 0v714h282v-94h300q145 0 209.5 -62.5t64.5 -186.5q0 -111 -65 -177t-207 -66h-302v-128h-282zM351 452v-150h182q53 0 75.5 17.5t22.5 56.5q0 41 -22.5 58.5t-75.5 17.5h-182z" />
    <glyph glyph-name="germandbls" unicode="&#xdf;" horiz-adv-x="888" 
d="M310 0h-250v482q0 142 98.5 199.5t307.5 57.5q346 0 346 -193q0 -55 -26 -88t-73 -40v-2q145 -28 145 -183q0 -57 -18.5 -101t-48 -71t-72 -43.5t-84.5 -23t-91 -6.5q-109 0 -186 24v168q98 -12 125 -12q113 0 113 82q0 42 -32.5 60.5t-104.5 18.5h-77v132h69q91 0 91 58
t-95 58q-81 0 -109 -30t-28 -111v-436z" />
    <glyph glyph-name="agrave" unicode="&#xe0;" 
d="M314 381h-250q22 110 108 150q83 38 284 38q193 0 274.5 -49.5t81.5 -170.5v-264q0 -51 23 -85h-256q-7 24 -9 54q-82 -76 -274 -76q-134 0 -204 42.5t-70 142.5q0 161 256 172l211 10q37 2 52 12t15 33q0 53 -116 53q-112 0 -126 -62zM562 225v24q-39 -8 -202 -23
q-35 -3 -51.5 -15.5t-16.5 -38.5q0 -62 93 -62q177 0 177 115zM346 601l-153 144h303l91 -144h-241z" />
    <glyph glyph-name="aacute" unicode="&#xe1;" 
d="M314 381h-250q22 110 108 150q83 38 284 38q193 0 274.5 -49.5t81.5 -170.5v-264q0 -51 23 -85h-256q-7 24 -9 54q-82 -76 -274 -76q-134 0 -204 42.5t-70 142.5q0 161 256 172l211 10q37 2 52 12t15 33q0 53 -116 53q-112 0 -126 -62zM562 225v24q-39 -8 -202 -23
q-35 -3 -51.5 -15.5t-16.5 -38.5q0 -62 93 -62q177 0 177 115zM283 601l91 144h303l-153 -144h-241z" />
    <glyph glyph-name="acircumflex" unicode="&#xe2;" 
d="M314 381h-250q22 110 108 150q83 38 284 38q193 0 274.5 -49.5t81.5 -170.5v-264q0 -51 23 -85h-256q-7 24 -9 54q-82 -76 -274 -76q-134 0 -204 42.5t-70 142.5q0 161 256 172l211 10q37 2 52 12t15 33q0 53 -116 53q-112 0 -126 -62zM562 225v24q-39 -8 -202 -23
q-35 -3 -51.5 -15.5t-16.5 -38.5q0 -62 93 -62q177 0 177 115zM101 601l155 144h358l155 -144h-279l-68 76l-68 -76h-253z" />
    <glyph glyph-name="atilde" unicode="&#xe3;" 
d="M314 381h-250q22 110 108 150q83 38 284 38q193 0 274.5 -49.5t81.5 -170.5v-264q0 -51 23 -85h-256q-7 24 -9 54q-82 -76 -274 -76q-134 0 -204 42.5t-70 142.5q0 161 256 172l211 10q37 2 52 12t15 33q0 53 -116 53q-112 0 -126 -62zM562 225v24q-39 -8 -202 -23
q-35 -3 -51.5 -15.5t-16.5 -38.5q0 -62 93 -62q177 0 177 115zM621 745h106q-17 -80 -57 -118t-94 -38q-27 0 -146.5 24t-139.5 24q-26 0 -40 -29h-107q43 155 163 155q22 0 142 -24q118 -24 130 -24q31 0 43 30z" />
    <glyph glyph-name="adieresis" unicode="&#xe4;" 
d="M314 381h-250q22 110 108 150q83 38 284 38q193 0 274.5 -49.5t81.5 -170.5v-264q0 -51 23 -85h-256q-7 24 -9 54q-82 -76 -274 -76q-134 0 -204 42.5t-70 142.5q0 161 256 172l211 10q37 2 52 12t15 33q0 53 -116 53q-112 0 -126 -62zM562 225v24q-39 -8 -202 -23
q-35 -3 -51.5 -15.5t-16.5 -38.5q0 -62 93 -62q177 0 177 115zM154 607v132h242v-132h-242zM474 607v132h242v-132h-242z" />
    <glyph glyph-name="aring" unicode="&#xe5;" 
d="M314 381h-250q22 110 108 150q83 38 284 38q193 0 274.5 -49.5t81.5 -170.5v-264q0 -51 23 -85h-256q-7 24 -9 54q-82 -76 -274 -76q-134 0 -204 42.5t-70 142.5q0 161 256 172l211 10q37 2 52 12t15 33q0 53 -116 53q-112 0 -126 -62zM562 225v24q-39 -8 -202 -23
q-35 -3 -51.5 -15.5t-16.5 -38.5q0 -62 93 -62q177 0 177 115zM297 736q0 57 40.5 97.5t97.5 40.5t97.5 -40.5t40.5 -97.5t-40.5 -97.5t-97.5 -40.5t-97.5 40.5t-40.5 97.5zM375 736q0 -25 17.5 -42.5t42.5 -17.5t42.5 17.5t17.5 42.5t-17.5 42.5t-42.5 17.5t-42.5 -17.5
t-17.5 -42.5z" />
    <glyph glyph-name="ae" unicode="&#xe6;" horiz-adv-x="1166" 
d="M492 225v20q-26 -13 -63 -16l-111 -9q-54 -5 -54 -48q0 -59 97 -59q53 0 92 27.5t39 84.5zM897 164h237q-62 -186 -321 -186q-150 0 -223 74q-34 -33 -111 -53.5t-158 -20.5q-155 0 -227 42t-72 144q0 146 200 160l196 14q37 2 53 11.5t16 34.5q0 29 -27.5 38t-72.5 9
q-30 0 -49.5 -5t-28.5 -15t-11.5 -17t-4.5 -18h-236q12 114 122 160q78 33 212 33q153 0 214 -52q81 52 194 52q157 0 247 -79t90 -238v-35h-452q10 -101 117 -101q42 0 61 10.5t35 37.5zM684 331h227q-4 44 -36.5 72t-76.5 28q-45 0 -77.5 -28t-36.5 -72z" />
    <glyph glyph-name="ccedilla" unicode="&#xe7;" 
d="M580 231h262q-7 -63 -34 -110t-63.5 -73.5t-88 -42.5t-97.5 -21t-103 -6l-19 -28q20 2 35 2q116 0 116 -79q0 -89 -156 -89q-46 0 -150 20l16 51q46 -11 83 -11q45 0 45 29q0 8 -11 13.5t-24 5.5q-14 0 -35 -8l-27 21l53 75q-352 19 -352 295q0 294 410 294
q184 0 283 -55t119 -187h-262q-4 48 -47 69q-33 17 -90 17q-79 0 -115 -37.5t-36 -97.5q0 -64 38 -101t111 -37q57 0 92 20.5t47 70.5z" />
    <glyph glyph-name="egrave" unicode="&#xe8;" 
d="M286 341h298q-4 44 -44 70t-104 26q-67 0 -103.5 -22.5t-46.5 -73.5zM567 164h266q-29 -88 -125 -136q-100 -50 -265 -50q-200 0 -306.5 74t-106.5 222q0 141 102.5 218t287.5 77q76 0 137 -10.5t114.5 -35.5t89.5 -65t56 -101.5t19 -141.5h-550q0 -36 38 -67.5
t113 -31.5q92 0 130 48zM346 601l-153 144h303l91 -144h-241z" />
    <glyph glyph-name="eacute" unicode="&#xe9;" 
d="M286 341h298q-4 44 -44 70t-104 26q-67 0 -103.5 -22.5t-46.5 -73.5zM567 164h266q-29 -88 -125 -136q-100 -50 -265 -50q-200 0 -306.5 74t-106.5 222q0 141 102.5 218t287.5 77q76 0 137 -10.5t114.5 -35.5t89.5 -65t56 -101.5t19 -141.5h-550q0 -36 38 -67.5
t113 -31.5q92 0 130 48zM283 601l91 144h303l-153 -144h-241z" />
    <glyph glyph-name="ecircumflex" unicode="&#xea;" 
d="M286 341h298q-4 44 -44 70t-104 26q-67 0 -103.5 -22.5t-46.5 -73.5zM567 164h266q-29 -88 -125 -136q-100 -50 -265 -50q-200 0 -306.5 74t-106.5 222q0 141 102.5 218t287.5 77q76 0 137 -10.5t114.5 -35.5t89.5 -65t56 -101.5t19 -141.5h-550q0 -36 38 -67.5
t113 -31.5q92 0 130 48zM101 601l155 144h358l155 -144h-279l-68 76l-68 -76h-253z" />
    <glyph glyph-name="edieresis" unicode="&#xeb;" 
d="M286 341h298q-4 44 -44 70t-104 26q-67 0 -103.5 -22.5t-46.5 -73.5zM567 164h266q-29 -88 -125 -136q-100 -50 -265 -50q-200 0 -306.5 74t-106.5 222q0 141 102.5 218t287.5 77q76 0 137 -10.5t114.5 -35.5t89.5 -65t56 -101.5t19 -141.5h-550q0 -36 38 -67.5
t113 -31.5q92 0 130 48zM154 607v132h242v-132h-242zM474 607v132h242v-132h-242z" />
    <glyph glyph-name="igrave" unicode="&#xec;" horiz-adv-x="370" 
d="M60 0v547h250v-547h-250zM96 601l-153 144h303l91 -144h-241z" />
    <glyph glyph-name="iacute" unicode="&#xed;" horiz-adv-x="370" 
d="M60 0v547h250v-547h-250zM33 601l91 144h303l-153 -144h-241z" />
    <glyph glyph-name="icircumflex" unicode="&#xee;" horiz-adv-x="370" 
d="M60 0v547h250v-547h-250zM-149 601l155 144h358l155 -144h-279l-68 76l-68 -76h-253z" />
    <glyph glyph-name="idieresis" unicode="&#xef;" horiz-adv-x="370" 
d="M60 0v547h250v-547h-250zM-96 607v132h242v-132h-242zM224 607v132h242v-132h-242z" />
    <glyph glyph-name="eth" unicode="&#xf0;" 
d="M292 237q0 -39 36.5 -68t106.5 -29q71 0 107 29t36 68q0 38 -36.5 67t-106.5 29t-106.5 -29t-36.5 -67zM162 578l103 47q-46 14 -112 28l125 129q111 -16 211 -56l129 58l88 -52l-117 -53q117 -66 184 -166.5t67 -230.5q0 -159 -96.5 -231.5t-308.5 -72.5
q-208 0 -306.5 65t-98.5 194t88.5 193.5t249.5 64.5q118 0 182 -49l2 2q-59 83 -175 135l-148 -67z" />
    <glyph glyph-name="ntilde" unicode="&#xf1;" horiz-adv-x="832" 
d="M60 0v547h242v-68h2q23 31 83.5 57t142.5 26q110 0 176 -52.5t66 -161.5v-348h-250v283q0 99 -96 99q-52 0 -84 -32.5t-32 -97.5v-252h-250zM602 745h106q-17 -80 -57 -118t-94 -38q-27 0 -146.5 24t-139.5 24q-25 0 -40 -29h-107q43 155 163 155q22 0 142 -24
q118 -24 130 -24q31 0 43 30z" />
    <glyph glyph-name="ograve" unicode="&#xf2;" 
d="M292 274q0 -134 143 -134q74 0 108.5 33.5t34.5 100.5q0 133 -143 133t-143 -133zM30 274q0 152 97.5 223.5t307.5 71.5t307.5 -71.5t97.5 -223.5t-97.5 -224t-307.5 -72t-307.5 72t-97.5 224zM346 601l-153 144h303l91 -144h-241z" />
    <glyph glyph-name="oacute" unicode="&#xf3;" 
d="M292 274q0 -134 143 -134q74 0 108.5 33.5t34.5 100.5q0 133 -143 133t-143 -133zM30 274q0 152 97.5 223.5t307.5 71.5t307.5 -71.5t97.5 -223.5t-97.5 -224t-307.5 -72t-307.5 72t-97.5 224zM283 601l91 144h303l-153 -144h-241z" />
    <glyph glyph-name="ocircumflex" unicode="&#xf4;" 
d="M292 274q0 -134 143 -134q74 0 108.5 33.5t34.5 100.5q0 133 -143 133t-143 -133zM30 274q0 152 97.5 223.5t307.5 71.5t307.5 -71.5t97.5 -223.5t-97.5 -224t-307.5 -72t-307.5 72t-97.5 224zM101 601l155 144h358l155 -144h-279l-68 76l-68 -76h-253z" />
    <glyph glyph-name="otilde" unicode="&#xf5;" 
d="M292 274q0 -134 143 -134q74 0 108.5 33.5t34.5 100.5q0 133 -143 133t-143 -133zM30 274q0 152 97.5 223.5t307.5 71.5t307.5 -71.5t97.5 -223.5t-97.5 -224t-307.5 -72t-307.5 72t-97.5 224zM621 745h106q-17 -80 -57 -118t-94 -38q-27 0 -146.5 24t-139.5 24
q-26 0 -40 -29h-107q43 155 163 155q22 0 142 -24q118 -24 130 -24q31 0 43 30z" />
    <glyph glyph-name="odieresis" unicode="&#xf6;" 
d="M292 274q0 -134 143 -134q74 0 108.5 33.5t34.5 100.5q0 133 -143 133t-143 -133zM30 274q0 152 97.5 223.5t307.5 71.5t307.5 -71.5t97.5 -223.5t-97.5 -224t-307.5 -72t-307.5 72t-97.5 224zM154 607v132h242v-132h-242zM474 607v132h242v-132h-242z" />
    <glyph glyph-name="divide" unicode="&#xf7;" horiz-adv-x="600" 
d="M47 181v144h506v-144h-506zM195 469q0 43 30.5 74t74.5 31t74.5 -31t30.5 -74t-30.5 -74t-74.5 -31t-74.5 31t-30.5 74zM195 37q0 43 30.5 74t74.5 31t74.5 -31t30.5 -74t-30.5 -74t-74.5 -31t-74.5 31t-30.5 74z" />
    <glyph glyph-name="oslash" unicode="&#xf8;" 
d="M300 221l227 165q-34 21 -92 21q-143 0 -143 -133q0 -32 8 -53zM571 327l-228 -165q31 -22 92 -22q74 0 108.5 33.5t34.5 100.5q0 32 -7 53zM19 16l80 59q-69 70 -69 199q0 152 97.5 223.5t307.5 71.5q177 0 273 -51l98 72l45 -60l-80 -58q69 -70 69 -198
q0 -152 -97.5 -224t-307.5 -72q-177 0 -274 52l-100 -73z" />
    <glyph glyph-name="ugrave" unicode="&#xf9;" horiz-adv-x="832" 
d="M772 547v-547h-242v61h-2q-23 -31 -83.5 -57t-142.5 -26q-110 0 -176 52.5t-66 161.5v355h250v-290q0 -99 96 -99q58 0 87 34t29 97v258h250zM327 601l-153 144h303l91 -144h-241z" />
    <glyph glyph-name="uacute" unicode="&#xfa;" horiz-adv-x="832" 
d="M772 547v-547h-242v61h-2q-23 -31 -83.5 -57t-142.5 -26q-110 0 -176 52.5t-66 161.5v355h250v-290q0 -99 96 -99q58 0 87 34t29 97v258h250zM264 601l91 144h303l-153 -144h-241z" />
    <glyph glyph-name="ucircumflex" unicode="&#xfb;" horiz-adv-x="832" 
d="M772 547v-547h-242v61h-2q-23 -31 -83.5 -57t-142.5 -26q-110 0 -176 52.5t-66 161.5v355h250v-290q0 -99 96 -99q58 0 87 34t29 97v258h250zM82 601l155 144h358l155 -144h-279l-68 76l-68 -76h-253z" />
    <glyph glyph-name="udieresis" unicode="&#xfc;" horiz-adv-x="832" 
d="M772 547v-547h-242v61h-2q-23 -31 -83.5 -57t-142.5 -26q-110 0 -176 52.5t-66 161.5v355h250v-290q0 -99 96 -99q58 0 87 34t29 97v258h250zM135 607v132h242v-132h-242zM455 607v132h242v-132h-242z" />
    <glyph glyph-name="yacute" unicode="&#xfd;" horiz-adv-x="722" 
d="M63 -187v162q30 -3 62 -3q43 0 61 7t32 35l14 30l-254 503h262l121 -281l121 281h262l-307 -636q-21 -43 -41 -63.5t-58.5 -32t-104.5 -11.5q-67 0 -170 9zM209 601l91 144h303l-153 -144h-241z" />
    <glyph glyph-name="thorn" unicode="&#xfe;" 
d="M60 -196v935h250v-254h2q64 77 217 77q62 0 117 -17.5t99 -52t69.5 -91.5t25.5 -131t-25.5 -131t-69.5 -91.5t-99 -52t-117 -17.5q-153 0 -217 77h-2v-251h-250zM310 270q0 -124 138 -124q65 0 100.5 34.5t35.5 89.5q0 57 -33.5 90.5t-103.5 33.5q-137 0 -137 -124z" />
    <glyph glyph-name="ydieresis" unicode="&#xff;" horiz-adv-x="722" 
d="M63 -187v162q30 -3 62 -3q43 0 61 7t32 35l14 30l-254 503h262l121 -281l121 281h262l-307 -636q-21 -43 -41 -63.5t-58.5 -32t-104.5 -11.5q-67 0 -170 9zM80 607v132h242v-132h-242zM400 607v132h242v-132h-242z" />
    <glyph glyph-name="dotlessi" unicode="&#x131;" horiz-adv-x="370" 
d="M60 0v547h250v-547h-250z" />
    <glyph glyph-name="Lslash" unicode="&#x141;" horiz-adv-x="796" 
d="M69 0v191l-68 -41v162l68 41v361h282v-205l167 99v-162l-167 -99v-155h437v-192h-719z" />
    <glyph glyph-name="lslash" unicode="&#x142;" horiz-adv-x="370" 
d="M60 0v229l-60 -37v150l60 37v360h250v-213l60 37v-150l-60 -37v-376h-250z" />
    <glyph glyph-name="OE" unicode="&#x152;" horiz-adv-x="1166" 
d="M565 279v159q0 57 -35 89t-81 32q-76 0 -106 -53.5t-30 -151.5q0 -94 30 -146.5t106 -52.5q46 0 81 32.5t35 91.5zM566 0v41q-73 -66 -195 -66q-71 0 -130.5 21t-107.5 65t-75 119.5t-27 176.5t27 176.5t75 119.5t107.5 65t130.5 21q132 0 194 -68v43h572v-174h-330v-96
h317v-174h-317v-96h335v-174h-576z" />
    <glyph glyph-name="oe" unicode="&#x153;" horiz-adv-x="1166" 
d="M684 331h227q-4 44 -36.5 72t-76.5 28q-45 0 -77.5 -28t-36.5 -72zM1136 217h-452q10 -101 117 -101q42 0 61 10.5t35 37.5h237q-62 -186 -321 -186q-150 0 -223 74q-80 -74 -224 -74q-155 0 -245.5 73.5t-90.5 221.5q0 85 29 145.5t79.5 92t106 45t121.5 13.5
q137 0 224 -63q75 63 209 63q157 0 247 -79t90 -238v-35zM272 266q0 -132 114 -132q112 0 112 146q0 64 -30 98.5t-82 34.5q-114 0 -114 -147z" />
    <glyph glyph-name="Scaron" unicode="&#x160;" horiz-adv-x="962" 
d="M551 255l-322 48q-99 15 -147 68.5t-48 132.5q0 67 31 114.5t89.5 73t129.5 36.5t163 11q233 0 342 -58.5t117 -175.5h-328q0 40 -43 57q-34 15 -88 15q-113 0 -113 -51q0 -32 37 -37l337 -50q230 -34 230 -208q0 -131 -111 -193.5t-348 -62.5q-73 0 -131.5 4.5
t-121.5 19.5t-105 40.5t-69.5 70t-27.5 105.5h340q1 -35 30 -51q31 -15 96 -15q112 0 112 58q0 40 -51 48zM302 768l-155 144h279l68 -76l68 76h253l-155 -144h-358z" />
    <glyph glyph-name="scaron" unicode="&#x161;" horiz-adv-x="815" 
d="M469 192l-244 25q-104 11 -145.5 52t-41.5 116q0 96 89.5 140t274.5 44q356 0 362 -186h-282q0 23 -19 34q-25 14 -74 14q-52 0 -70.5 -10t-18.5 -28q0 -28 67 -34l238 -21q98 -9 142 -50.5t44 -114.5q0 -104 -92.5 -149.5t-293.5 -45.5q-196 0 -285.5 44.5t-95.5 147.5
h294q4 -31 31 -44q22 -10 71 -10q83 0 83 42q0 30 -34 34zM229 601l-155 144h279l68 -76l68 76h253l-155 -144h-358z" />
    <glyph glyph-name="Ydieresis" unicode="&#x178;" horiz-adv-x="832" 
d="M275 0v201l-317 513h322l136 -280l136 280h322l-317 -513v-201h-282zM135 774v132h242v-132h-242zM455 774v132h242v-132h-242z" />
    <glyph glyph-name="Zcaron" unicode="&#x17d;" horiz-adv-x="852" 
d="M22 0v151l428 383h-399v180h779v-156l-418 -378h407v-180h-797zM247 768l-155 144h279l68 -76l68 76h253l-155 -144h-358z" />
    <glyph glyph-name="zcaron" unicode="&#x17e;" horiz-adv-x="704" 
d="M25 0v138l309 239v2h-291v168h627v-144l-293 -227v-2h302v-174h-654zM173 601l-155 144h279l68 -76l68 76h253l-155 -144h-358z" />
    <glyph glyph-name="florin" unicode="&#x192;" horiz-adv-x="600" 
d="M54 291l25 126h109l35 167q9 43 33.5 70.5t62.5 39.5t72.5 16t83.5 4q53 0 131 -9l-28 -144l-48 3q-31 0 -45.5 -11.5t-22.5 -48.5l-18 -87h103l-26 -126h-103l-65 -313q-21 -100 -73 -137t-180 -37q-23 0 -146 6l30 147q17 -3 42 -3q39 0 54 12.5t25 56.5l57 268h-108z
" />
    <glyph glyph-name="circumflex" unicode="&#x2c6;" horiz-adv-x="278" 
d="M-195 601l155 144h358l155 -144h-279l-68 76l-68 -76h-253z" />
    <glyph glyph-name="caron" unicode="&#x2c7;" horiz-adv-x="278" 
d="M-40 601l-155 144h279l68 -76l68 76h253l-155 -144h-358z" />
    <glyph glyph-name="uni02C9" unicode="&#x2c9;" horiz-adv-x="278" 
d="M-146 607v132h570v-132h-570z" />
    <glyph glyph-name="breve" unicode="&#x2d8;" horiz-adv-x="278" 
d="M248 745h132q-17 -91 -81 -127q-53 -30 -160 -30q-105 0 -164 33t-77 124h132q7 -27 37 -36q22 -7 72 -7q94 0 109 43z" />
    <glyph glyph-name="dotaccent" unicode="&#x2d9;" horiz-adv-x="278" 
d="M18 607v132h242v-132h-242z" />
    <glyph glyph-name="ring" unicode="&#x2da;" horiz-adv-x="278" 
d="M1 736q0 57 40.5 97.5t97.5 40.5t97.5 -40.5t40.5 -97.5t-40.5 -97.5t-97.5 -40.5t-97.5 40.5t-40.5 97.5zM79 736q0 -25 17.5 -42.5t42.5 -17.5t42.5 17.5t17.5 42.5t-17.5 42.5t-42.5 17.5t-42.5 -17.5t-17.5 -42.5z" />
    <glyph glyph-name="ogonek" unicode="&#x2db;" horiz-adv-x="278" 
d="M382 20h112q-51 -32 -75.5 -54t-24.5 -47q0 -20 15.5 -31.5t40.5 -11.5q30 0 59 11l5 -52q-92 -19 -154 -19q-128 0 -128 83q0 40 40.5 72.5t109.5 48.5z" />
    <glyph glyph-name="tilde" unicode="&#x2dc;" horiz-adv-x="278" 
d="M325 745h106q-17 -80 -57 -118t-94 -38q-27 0 -146.5 24t-139.5 24q-26 0 -40 -29h-107q43 155 163 155q22 0 142 -24q118 -24 130 -24q31 0 43 30z" />
    <glyph glyph-name="hungarumlaut" unicode="&#x2dd;" horiz-adv-x="278" 
d="M-238 601l91 144h303l-153 -144h-241zM122 601l91 144h303l-153 -144h-241z" />
    <glyph glyph-name="uni03A9" unicode="&#x3a9;" horiz-adv-x="941" 
d="M208 158v4q-61 34 -107 96.5t-46 148.5q0 131 113 219t303 88q189 0 301 -87t112 -223q0 -84 -40.5 -139t-116.5 -103v-4h170v-158h-398v124q80 52 118.5 105t38.5 135q0 84 -51 139.5t-132 55.5q-80 0 -134 -53t-54 -145q0 -76 42 -139t116 -98v-124h-401v158h166z" />
    <glyph glyph-name="uni03BC" unicode="&#x3bc;" horiz-adv-x="832" 
d="M772 547v-547h-242v61h-2q-25 -39 -61 -61t-71 -22q-51 0 -84 40h-2v-214h-250v743h250v-290q0 -99 96 -99q58 0 87 34t29 97v258h250z" />
    <glyph glyph-name="pi" unicode="&#x3c0;" horiz-adv-x="797" 
d="M765 371h-72v-186q0 -127 13 -185h-223q-20 22 -20 167v204h-112q0 -99 -17 -212t-42 -159h-223q25 77 43 186.5t15 184.5q-76 0 -109 -8l-19 126q36 42 230 42h555z" />
    <glyph glyph-name="endash" unicode="&#x2013;" horiz-adv-x="500" 
d="M0 213v162h500v-162h-500z" />
    <glyph glyph-name="emdash" unicode="&#x2014;" horiz-adv-x="1000" 
d="M0 213v162h1000v-162h-1000z" />
    <glyph glyph-name="quoteleft" unicode="&#x2018;" horiz-adv-x="408" 
d="M73 286v170q0 57 19 103t48 73.5t66 46.5t68.5 26.5t60.5 8.5v-90q-112 -13 -118 -114h118v-224h-262z" />
    <glyph glyph-name="quoteright" unicode="&#x2019;" horiz-adv-x="408" 
d="M73 490v224h262v-170q0 -57 -19 -103t-48 -73.5t-66 -46.5t-68.5 -26.5t-60.5 -8.5v90q112 13 118 114h-118z" />
    <glyph glyph-name="quotesinglbase" unicode="&#x201a;" horiz-adv-x="408" 
d="M73 0v224h262v-170q0 -57 -19 -103t-48 -73.5t-66 -46.5t-68.5 -26.5t-60.5 -8.5v90q112 13 118 114h-118z" />
    <glyph glyph-name="quotedblleft" unicode="&#x201c;" horiz-adv-x="722" 
d="M408 286v170q0 57 19 103t48 73.5t66 46.5t68.5 26.5t60.5 8.5v-90q-112 -13 -118 -114h118v-224h-262zM52 286v170q0 57 19 103t48 73.5t66 46.5t68.5 26.5t60.5 8.5v-90q-112 -13 -118 -114h118v-224h-262z" />
    <glyph glyph-name="quotedblright" unicode="&#x201d;" horiz-adv-x="722" 
d="M52 490v224h262v-170q0 -57 -19 -103t-48 -73.5t-66 -46.5t-68.5 -26.5t-60.5 -8.5v90q112 13 118 114h-118zM408 490v224h262v-170q0 -57 -19 -103t-48 -73.5t-66 -46.5t-68.5 -26.5t-60.5 -8.5v90q112 13 118 114h-118z" />
    <glyph glyph-name="quotedblbase" unicode="&#x201e;" horiz-adv-x="722" 
d="M52 0v224h262v-170q0 -57 -19 -103t-48 -73.5t-66 -46.5t-68.5 -26.5t-60.5 -8.5v90q112 13 118 114h-118zM408 0v224h262v-170q0 -57 -19 -103t-48 -73.5t-66 -46.5t-68.5 -26.5t-60.5 -8.5v90q112 13 118 114h-118z" />
    <glyph glyph-name="dagger" unicode="&#x2020;" horiz-adv-x="964" 
d="M103 340v174h248v200h262v-200h248v-174h-248v-536h-262v536h-248z" />
    <glyph glyph-name="daggerdbl" unicode="&#x2021;" horiz-adv-x="964" 
d="M103 -12v156h254v230h-254v156h254v184h250v-184h254v-156h-254v-230h254v-156h-254v-184h-250v184h-254z" />
    <glyph glyph-name="bullet" unicode="&#x2022;" horiz-adv-x="500" 
d="M72 357q0 73 52 125.5t126 52.5t126 -52.5t52 -125.5t-52 -125.5t-126 -52.5t-126 52.5t-52 125.5z" />
    <glyph glyph-name="ellipsis" unicode="&#x2026;" horiz-adv-x="1000" 
d="M36 0v224h262v-224h-262zM369 0v224h262v-224h-262zM702 0v224h262v-224h-262z" />
    <glyph glyph-name="perthousand" unicode="&#x2030;" horiz-adv-x="1166" 
d="M127 538q0 -57 8.5 -77.5t33.5 -20.5q26 0 34 20.5t8 77.5t-8 77.5t-34 20.5q-25 0 -33.5 -21t-8.5 -77zM93 -20l468 734h128l-468 -734h-128zM571 156q0 -57 8.5 -77.5t33.5 -20.5q26 0 34 20.5t8 77.5t-8 77.5t-34 20.5q-25 0 -33.5 -21t-8.5 -77zM1 538q0 176 168 176
t168 -176t-168 -176t-168 176zM445 156q0 176 168 176t168 -176t-168 -176t-168 176zM829 156q0 176 168 176t168 -176t-168 -176t-168 176zM955 156q0 -57 8.5 -77.5t33.5 -20.5q26 0 34 20.5t8 77.5t-8 77.5t-34 20.5q-25 0 -33.5 -21t-8.5 -77z" />
    <glyph glyph-name="guilsinglleft" unicode="&#x2039;" horiz-adv-x="408" 
d="M88 195v198l216 161v-168l-125 -92l125 -92v-168z" />
    <glyph glyph-name="guilsinglright" unicode="&#x203a;" horiz-adv-x="408" 
d="M104 34v168l125 92l-125 92v168l216 -161v-198z" />
    <glyph glyph-name="fraction" unicode="&#x2044;" horiz-adv-x="166" 
d="M-215 -20l468 734h128l-468 -734h-128z" />
    <glyph glyph-name="Euro" unicode="&#x20ac;" horiz-adv-x="964" 
d="M922 647l-111 -163q-118 64 -199 64q-109 0 -156 -102h335l-53 -85h-299v-15v-16h283l-52 -85h-216q37 -108 164 -108q66 0 121.5 20.5t126.5 61.5l-1 -206q-143 -37 -274 -37q-63 0 -116 7t-106.5 25t-93.5 47.5t-70.5 77.5t-42.5 112h-96l52 85h36q-1 4 -1 31h-87
l52 85h44q52 262 443 262q164 0 317 -61z" />
    <glyph glyph-name="afii61289" unicode="&#x2113;" horiz-adv-x="722" 
d="M599 240l93 -94q-55 -85 -138.5 -123t-174.5 -38q-93 0 -149.5 31.5t-85.5 107.5q-1 1 -1.5 3.5t-0.5 3.5q-8 -4 -17 -9.5t-16.5 -10t-15.5 -8.5l-61 103q48 31 105 63v182q0 313 253 313q106 0 162 -56t56 -138q0 -92 -61 -169t-196 -175l3 -10q5 -26 26 -43t56 -17
q88 0 163 84zM351 521v-122q44 40 69 86.5t25 84.5q0 60 -41 60q-53 0 -53 -109z" />
    <glyph glyph-name="trademark" unicode="&#x2122;" horiz-adv-x="1000" 
d="M111 302v304h-112v108h368v-108h-112v-304h-144zM829 302v268h-2l-82 -268h-102l-82 268h-2v-268h-132v412h192l74 -238h2l74 238h192v-412h-132z" />
    <glyph glyph-name="Omega" unicode="&#x2126;" horiz-adv-x="941" 
d="M208 158v4q-61 34 -107 96.5t-46 148.5q0 131 113 219t303 88q189 0 301 -87t112 -223q0 -84 -40.5 -139t-116.5 -103v-4h170v-158h-398v124q80 52 118.5 105t38.5 135q0 84 -51 139.5t-132 55.5q-80 0 -134 -53t-54 -145q0 -76 42 -139t116 -98v-124h-401v158h166z" />
    <glyph glyph-name="estimated" unicode="&#x212e;" horiz-adv-x="880" 
d="M845 337h-657q-5 0 -5 -5v-198q0 -12 9 -23q103 -108 248 -108q77 0 144.5 32.5t116.5 88.5h59q-56 -65 -140.5 -103t-180.5 -38q-168 0 -286.5 106.5t-118.5 257.5t118.5 258t286.5 107q169 0 287.5 -107t118.5 -258v-10zM696 363v199q0 15 -10 24q-104 104 -246 104
t-247 -107q-10 -9 -10 -25v-195q0 -7 5 -7h504q4 0 4 7z" />
    <glyph glyph-name="partialdiff" unicode="&#x2202;" horiz-adv-x="748" 
d="M115 585l-64 135q115 68 266 68q173 0 282.5 -111t109.5 -286q0 -190 -111.5 -298t-280.5 -108q-72 0 -130 24.5t-91.5 63t-51 80t-17.5 81.5q0 111 75 189t203 78q68 0 114 -27t70 -59h1v11q0 82 -52 141.5t-150 59.5q-86 0 -173 -42zM342 142h1q47 0 82.5 39t42.5 88
q-5 27 -34.5 53t-71.5 26q-51 0 -82 -32t-31 -82q0 -42 27 -67t66 -25z" />
    <glyph glyph-name="Delta" unicode="&#x2206;" horiz-adv-x="842" 
d="M21 0v98l265 619h273l261 -619v-98h-799zM267 160h289l-101 271q-31 83 -45 130h-5q-34 -106 -40 -123z" />
    <glyph glyph-name="product" unicode="&#x220f;" horiz-adv-x="901" 
d="M884 529h-123v-626h-215v626h-192v-626h-215v626h-123v172h868v-172z" />
    <glyph glyph-name="summation" unicode="&#x2211;" horiz-adv-x="717" 
d="M704 -97h-683v110l266 282l-250 274v132h636v-172h-329v-4l194 -210l-216 -235v-5h382v-172z" />
    <glyph glyph-name="minus" unicode="&#x2212;" horiz-adv-x="600" 
d="M47 181v144h506v-144h-506z" />
    <glyph glyph-name="uni2215" unicode="&#x2215;" horiz-adv-x="166" 
d="M-215 -20l468 734h128l-468 -734h-128z" />
    <glyph glyph-name="uni2219" unicode="&#x2219;" horiz-adv-x="408" 
d="M73 244q0 54 38.5 92.5t92.5 38.5t92.5 -38.5t38.5 -92.5t-38.5 -92.5t-92.5 -38.5t-92.5 38.5t-38.5 92.5z" />
    <glyph glyph-name="radical" unicode="&#x221a;" horiz-adv-x="763" 
d="M802 838l-298 -993h-166l-193 427l-85 -36l-35 96l246 102l120 -308q20 -52 32 -89h2q3 12 11 43.5t13 50.5l198 707h155z" />
    <glyph glyph-name="infinity" unicode="&#x221e;" horiz-adv-x="843" 
d="M797 293v-1q0 -91 -55.5 -145.5t-130.5 -54.5q-116 0 -193 113q-44 -56 -88 -84.5t-103 -28.5q-75 0 -129 53t-54 140t55 142t138 55q61 0 106 -26t86 -82q1 1 11.5 13.5t14 16.5t15 15.5t18.5 16.5t19.5 14.5t23 13.5t24.5 9.5t29.5 7t31.5 1.5q75 -1 128 -52.5
t53 -136.5zM237 194h2q59 0 124 86q-19 29 -28 41.5t-25.5 29.5t-34 23.5t-39.5 6.5q-36 0 -61 -25t-25 -70q0 -37 25.5 -64.5t61.5 -27.5zM605 381h-1q-19 0 -36.5 -7.5t-35.5 -25t-26 -27.5t-26 -33q41 -57 69.5 -75.5t61.5 -18.5q36 0 57.5 28.5t21.5 61.5q0 42 -23 69.5
t-62 27.5z" />
    <glyph glyph-name="integral" unicode="&#x222b;" horiz-adv-x="463" 
d="M461 867l-18 -123q-23 5 -45 5q-44 0 -64 -32q-22 -34 -22 -154q0 -81 10 -220t10 -237q0 -128 -38 -195q-55 -98 -181 -98q-69 0 -108 17l22 129q22 -8 52 -8q38 0 58 23q28 35 28 136q0 100 -10.5 244t-10.5 231q0 89 19 145t61 97q53 52 160 52q49 0 77 -12z" />
    <glyph glyph-name="approxequal" unicode="&#x2248;" horiz-adv-x="650" 
d="M545 494l74 -78q-41 -56 -88 -83.5t-90 -27.5q-36 0 -62.5 9.5t-67.5 31.5q-58 31 -93 31q-60 0 -121 -72l-73 78q29 44 84.5 77t109.5 33q68 0 118 -33q38 -24 55.5 -31t41.5 -7q54 0 112 72zM545 278l74 -78q-82 -111 -180 -111q-55 0 -128 40q-58 31 -92 31
q-60 0 -122 -71l-73 78q29 44 85 77t110 33q61 0 116 -32q6 -3 18 -11t18.5 -11.5t17 -8.5t21 -7t21.5 -2q31 0 56.5 17.5t57.5 55.5z" />
    <glyph glyph-name="notequal" unicode="&#x2260;" horiz-adv-x="650" 
d="M494 532l-35 -75h139v-112h-189l-55 -119h244v-112h-295l-55 -121l-92 43l36 78h-139v112h189l55 119h-244v112h294l55 118z" />
    <glyph glyph-name="lessequal" unicode="&#x2264;" horiz-adv-x="650" 
d="M598 149l-545 225v120l544 224v-121l-420 -162v-2l421 -162v-122zM598 0h-545v115h545v-115z" />
    <glyph glyph-name="greaterequal" unicode="&#x2265;" horiz-adv-x="650" 
d="M53 718l545 -225v-120l-544 -224v122l420 162v2l-421 162v121zM591 0h-537v115h537v-115z" />
    <glyph glyph-name="lozenge" unicode="&#x25ca;" horiz-adv-x="763" 
d="M715 349l-253 -394h-164l-251 394l251 396h164zM529 345l-130 220q-16 25 -20 36h-2q-7 -15 -20 -36l-124 -212l130 -221q16 -29 18 -34h3q3 4 9.5 16.5t9.5 17.5z" />
    </font>
</defs>
</svg>
